PathFileType	4	(X/Y/Z)	C:/Users/opensim2020/Desktop/walking_exp_matlab/subject03_walking06_straight_04.trc	
DataRate	CameraRate	NumFrames	NumMarkers	Units	OrigDataRate	OrigDataStartFrame	OrigNumFrames	
100.00	100.00	6	44	mm	100.00	2972	278	
Frame#	Time	LFHD			RFHD			LBHD			RBHD			C7			T10			CLAV			STRN			RBAK			LSHO			LUPA			LELB			LFRM			LWRA			LWRB			LFIN			RSHO			RUPA			RELB			RFRM			RWRA			RWRB			RFIN			LASI			RASI			LPSI			RPSI			LTHI			LKNE			LTIB			LANK			LHEE			LTOE			RTHI			RKNE			RTIB			RANK			RHEE			RTOE			*39			*40			*41			*42			*43			
		X1	Y1	Z1	X2	Y2	Z2	X3	Y3	Z3	X4	Y4	Z4	X5	Y5	Z5	X6	Y6	Z6	X7	Y7	Z7	X8	Y8	Z8	X9	Y9	Z9	X10	Y10	Z10	X11	Y11	Z11	X12	Y12	Z12	X13	Y13	Z13	X14	Y14	Z14	X15	Y15	Z15	X16	Y16	Z16	X17	Y17	Z17	X18	Y18	Z18	X19	Y19	Z19	X20	Y20	Z20	X21	Y21	Z21	X22	Y22	Z22	X23	Y23	Z23	X24	Y24	Z24	X25	Y25	Z25	X26	Y26	Z26	X27	Y27	Z27	X28	Y28	Z28	X29	Y29	Z29	X30	Y30	Z30	X31	Y31	Z31	X32	Y32	Z32	X33	Y33	Z33	X34	Y34	Z34	X35	Y35	Z35	X36	Y36	Z36	X37	Y37	Z37	X38	Y38	Z38	X39	Y39	Z39	X40	Y40	Z40	X41	Y41	Z41	X42	Y42	Z42	X43	Y43	Z43	X44	Y44	Z44	

244	2.430	-973.68140	-912.45630	1615.46350	-1106.50208	-917.71869	1624.48279	-987.07434	-786.06934	1566.36572	-1117.03516	-797.29803	1575.58777	-1042.76196	-763.04962	1411.50439	-1032.34570	-740.45459	1095.60828	-1042.95691	-886.31354	1337.58032	-1030.43860	-935.75372	1175.18982	-1128.34290	-713.04358	1228.34363	-888.80597	-845.95673	1378.91138	-815.44086	-866.82416	1186.11511	-806.55750	-896.12421	1066.05737	-816.96423	-962.17114	955.20728	-858.09247	-1021.27716	856.13776	-807.11658	-999.82568	847.32477	-825.73260	-1044.46033	777.41840	-1202.99036	-835.22400	1352.81470	-1269.74915	-823.23627	1128.51624	-1283.11853	-831.61316	1015.79156	-1284.13135	-841.24359	878.84955	-1250.78516	-870.07391	782.54919	-1291.81641	-834.04352	778.52448	-1280.07068	-849.65912	704.75287	-912.85980	-908.68451	932.35834	-1151.14026	-916.42712	942.42267	-967.80750	-748.40143	949.93329	-1115.84595	-753.49396	966.91394	-856.86566	-870.97473	627.57495	-871.13959	-897.43335	449.18738	-889.29541	-742.81525	327.45779	-945.23358	-593.97070	190.59500	-992.09680	-549.06555	198.50334	-949.29578	-654.73663	53.80488	-1191.35632	-878.25549	647.17065	-1152.44067	-912.76349	469.18826	-1150.64648	-890.18274	280.92413	-1096.04358	-895.90973	65.41529	-1043.34424	-855.17804	33.78930	-1082.98499	-1040.38538	31.24117	-1026.41199	-830.66260	1675.76294												 
245	2.440	-973.34045	-920.53607	1615.98840	-1106.05090	-926.33655	1625.00342	-987.31708	-794.34528	1566.60168	-1117.23340	-806.07733	1575.91431	-1043.00085	-771.68353	1412.12366	-1033.13501	-748.46613	1096.12109	-1042.76843	-894.65302	1337.93933	-1030.36987	-943.73889	1175.38574	-1129.33984	-721.34570	1229.23376	-888.63208	-853.79907	1378.80798	-815.57642	-873.93085	1185.59277	-806.72028	-903.37140	1065.34656	-816.43475	-967.31189	953.06482	-856.80518	-1024.76282	852.82526	-806.21210	-1002.38922	844.37506	-824.05847	-1046.20898	773.88470	-1203.08472	-844.53168	1353.08704	-1270.25208	-835.02667	1128.76746	-1283.77515	-844.85767	1016.15717	-1284.94409	-856.34576	879.35095	-1251.12708	-885.95569	783.49109	-1292.57971	-850.56226	778.85724	-1280.97266	-867.62579	705.63165	-913.29987	-916.50647	932.84186	-1151.86938	-924.26184	942.89423	-968.77954	-755.98328	949.93921	-1116.59326	-761.27838	967.38800	-856.71497	-883.36865	629.05316	-869.65442	-914.69202	451.48367	-887.96167	-761.58575	328.56476	-943.72906	-613.91412	190.16277	-990.69537	-568.53882	196.68106	-946.39178	-677.73413	54.90889	-1191.60950	-884.15814	647.67865	-1152.62488	-916.93115	469.38281	-1150.68921	-892.42645	281.11026	-1096.54175	-895.39050	66.17223	-1043.15393	-855.18341	33.91012	-1082.94092	-1040.41956	31.21539	-1026.48022	-838.87921	1675.88843												 
246	2.450	-972.88995	-928.51855	1616.62793	-1105.52588	-934.94916	1625.44714	-987.40948	-802.61176	1566.91797	-1117.31152	-814.86993	1576.22620	-1043.25195	-780.12372	1412.71387	-1033.79395	-756.24377	1096.70667	-1042.61243	-902.92432	1338.27905	-1030.26917	-951.68390	1175.57092	-1130.22742	-729.48767	1230.22546	-888.29053	-861.59113	1378.74255	-815.78583	-880.95190	1185.20203	-806.91003	-910.02734	1064.71191	-815.91333	-972.20239	951.14337	-855.46417	-1027.72900	849.59448	-805.02979	-1005.02100	841.71289	-822.23004	-1047.73804	770.60046	-1203.05750	-853.66370	1353.54492	-1270.57813	-846.87738	1129.16785	-1284.40503	-858.27899	1016.70148	-1285.46484	-871.56812	880.03729	-1251.36414	-901.99176	784.74860	-1293.35596	-867.33594	779.54297	-1281.96484	-885.85376	706.85413	-913.98022	-924.28918	933.65656	-1152.61121	-931.85583	943.44684	-969.82227	-763.78534	950.16260	-1117.30176	-768.99030	967.84760	-856.68042	-895.96783	630.52747	-868.43732	-931.75177	454.03918	-886.81537	-780.39441	329.24295	-941.96033	-634.65942	188.51041	-988.92645	-588.50482	193.56178	-944.15076	-702.10742	55.27758	-1191.96851	-890.61444	648.19885	-1152.58875	-921.27887	469.42740	-1150.69031	-894.57019	281.30566	-1096.40247	-895.35284	66.41095	-1042.94556	-855.26434	34.07545	-1082.92480	-1040.48132	31.12706	-1026.33862	-847.04285	1676.28198												 
247	2.460	-972.46387	-936.70197	1616.79333	-1105.00256	-943.60059	1625.88879	-987.58105	-810.76331	1567.25464	-1117.36682	-823.59839	1576.65515	-1043.36694	-788.49164	1413.32642	-1034.68787	-763.92169	1097.46289	-1042.38013	-911.06390	1338.64258	-1030.23523	-959.53674	1175.88293	-1130.81714	-737.63458	1231.14734	-888.04260	-869.15002	1378.81250	-816.07288	-887.93555	1184.98706	-807.17755	-916.67041	1064.33838	-815.31830	-976.82062	949.44147	-853.96051	-1030.50085	846.62958	-803.43152	-1007.45081	839.54498	-820.18134	-1049.11902	767.65430	-1202.94238	-862.49884	1354.15881	-1270.82166	-858.75824	1129.84753	-1284.57483	-871.98517	1017.59613	-1285.95667	-887.01355	881.09821	-1251.53662	-918.14014	786.27362	-1294.07166	-884.19464	780.58429	-1282.95386	-904.31506	708.44904	-914.82172	-932.17920	934.65253	-1153.39063	-939.34039	943.98755	-970.29376	-771.34998	950.79803	-1117.91931	-776.51721	968.30450	-856.61627	-908.67114	632.05103	-867.64911	-948.32996	456.52835	-885.72449	-799.38043	329.38968	-940.27478	-655.83380	185.80402	-986.89484	-609.06909	189.11177	-942.53632	-727.75360	54.88079	-1192.06287	-897.32690	648.42145	-1152.58179	-925.38818	469.44116	-1150.55518	-896.64404	281.47235	-1095.48230	-896.17432	65.86145	-1042.78894	-855.33380	34.28041	-1082.86121	-1040.54089	31.08030	-1026.38586	-855.23517	1676.90979												 
248	2.470	-971.73877	-944.88629	1617.36755	-1104.46106	-952.30762	1626.26062	-987.68958	-818.80536	1567.68274	-1117.26672	-832.23798	1577.08826	-1043.40515	-796.63934	1413.91309	-1035.27905	-771.57562	1098.03235	-1042.10559	-919.13690	1339.05005	-1030.28711	-967.19769	1176.19128	-1131.33203	-745.58582	1232.09119	-887.83508	-876.59656	1378.98914	-816.27814	-894.83655	1184.87646	-807.47437	-923.16803	1064.24939	-814.63104	-981.21899	948.05023	-852.31531	-1032.90918	843.94763	-801.73901	-1009.65088	837.60309	-817.88843	-1050.38391	765.05621	-1202.82202	-871.17181	1354.92029	-1271.01563	-870.56207	1130.76379	-1284.69580	-885.73138	1018.75531	-1286.32080	-902.60461	882.49353	-1251.32458	-934.03003	787.81152	-1294.93250	-901.48615	782.07898	-1283.93958	-922.88403	710.43915	-915.77728	-940.15375	935.86029	-1154.18140	-946.70197	944.53912	-970.69257	-779.14484	951.36993	-1118.38770	-784.08221	968.67120	-856.54767	-921.27850	633.50482	-867.05237	-964.30652	458.83035	-884.64471	-818.60541	328.85577	-938.59857	-677.72742	181.99246	-984.70483	-630.25476	183.38237	-941.29449	-754.79828	54.24548	-1191.53296	-904.49237	648.51263	-1152.58508	-929.38354	469.38531	-1150.51477	-898.80823	281.64810	-1096.01050	-895.39380	66.93664	-1042.39233	-855.63214	34.59977	-1082.80579	-1040.62329	30.99833	-1026.57532	-863.45306	1677.54626												 
249	2.480	-971.05853	-953.08398	1617.74646	-1103.71252	-960.80493	1626.61804	-987.46808	-827.04871	1568.07983	-1117.11047	-840.84711	1577.56873	-1043.35083	-804.67157	1414.44519	-1035.87842	-779.06213	1098.67773	-1041.85681	-927.03668	1339.44495	-1030.45007	-974.73438	1176.48828	-1131.82959	-753.55750	1233.08533	-887.56879	-884.01880	1379.31580	-816.53986	-901.41962	1184.83289	-807.63190	-929.18158	1064.05066	-813.81976	-985.29578	946.82452	-850.56329	-1034.97058	841.47540	-799.90039	-1011.62671	835.92749	-815.46191	-1051.45996	762.81897	-1202.81543	-879.77063	1355.91785	-1271.17041	-882.22339	1131.89038	-1284.63391	-899.49866	1020.22028	-1286.60181	-918.23022	884.22119	-1251.60291	-950.58905	790.11328	-1295.64148	-918.68982	783.89929	-1284.89099	-941.47400	712.76453	-916.74207	-947.98248	936.92975	-1154.97388	-953.96832	945.01721	-971.06580	-786.93903	951.97345	-1118.73413	-791.64850	968.97632	-856.52545	-933.85468	635.02655	-866.84454	-980.24182	461.26410	-883.60382	-838.05353	327.59146	-936.89154	-700.28851	177.19368	-982.48712	-652.07898	176.45477	-940.17657	-783.11584	53.41587	-1191.51819	-911.91479	647.72766	-1152.61646	-933.34308	469.36081	-1150.42493	-901.04169	281.83893	-1095.83240	-895.74408	67.09650	-1042.43445	-855.47357	34.88036	-1082.78638	-1040.69250	30.89119	-1027.43469	-871.24683	1677.65808												 
